<svg width="9" height="16" viewBox="0 0 9 16" fill="none" xmlns="http://www.w3.org/2000/svg">
<path d="M8.59471 0.404046C8.49966 0.30875 8.38673 0.233143 8.26241 0.181555C8.13809 0.129968 8.00481 0.103413 7.87021 0.103413C7.73561 0.103413 7.60234 0.129968 7.47802 0.181555C7.3537 0.233143 7.24077 0.30875 7.14572 0.404046L0.34282 7.20694C0.266929 7.28268 0.20672 7.37264 0.16564 7.47167C0.124559 7.57071 0.103413 7.67687 0.103413 7.78408C0.103413 7.8913 0.124559 7.99746 0.16564 8.0965C0.20672 8.19553 0.266929 8.28549 0.34282 8.36123L7.14572 15.1641C7.54685 15.5653 8.19358 15.5653 8.59471 15.1641C8.99585 14.763 8.99585 14.1163 8.59471 13.7151L2.66776 7.77999L8.6029 1.84485C8.99584 1.45191 8.99585 0.796993 8.59471 0.404046Z" fill="#1E232C" stroke="#1E232C" stroke-width="0.2"/>
</svg>
